<?xml version="1.0" encoding="UTF-8"?>
<svg width="80px" height="24px" viewBox="0 0 80 24" version="1.1" xmlns="http://www.w3.org/2000/svg" xmlns:xlink="http://www.w3.org/1999/xlink">
  <g id="clutch-logo" stroke="none" stroke-width="1" fill="none" fill-rule="evenodd">
    <path d="M14.532,4.508 C20.024,4.508 24.476,8.969 24.476,14.476 C24.476,19.983 20.024,24.443 14.532,24.443 C9.039,24.443 4.588,19.983 4.588,14.476 C4.588,8.969 9.039,4.508 14.532,4.508 Z M14.532,19.766 C17.445,19.766 19.807,17.397 19.807,14.476 C19.807,11.555 17.445,9.186 14.532,9.186 C11.618,9.186 9.257,11.555 9.257,14.476 C9.257,17.397 11.618,19.766 14.532,19.766 Z" id="Combined-Shape" fill="#000000"></path>
    <polygon id="Path" fill="#000000" points="29.798 0 29.798 23.879 34.467 23.879 34.467 0"></polygon>
    <path d="M46.344,10.026 L46.344,10.026 L46.344,23.879 L41.675,23.879 L41.675,10.026 L46.344,10.026 Z M44.01,0 C45.766,0 47.187,1.427 47.187,3.186 C47.187,4.945 45.766,6.373 44.01,6.373 C42.255,6.373 40.833,4.945 40.833,3.186 C40.833,1.427 42.255,0 44.01,0 Z" id="Combined-Shape" fill="#000000"></path>
    <path d="M48.748,14.052 L48.748,14.052 C48.748,11.725 50.649,9.819 53.556,9.819 C56.124,9.819 58.213,11.396 58.213,14.641 L58.213,23.879 L53.544,23.879 L53.544,15.371 C53.544,14.434 52.885,13.687 51.953,13.687 C50.848,13.687 50.362,14.558 50.362,15.371 L50.362,23.879 L45.694,23.879 L45.694,10.026 L48.748,10.026 L48.748,14.052 Z" id="Path" fill="#000000"></path>
    <path d="M77.774,16.953 L77.774,16.953 C77.774,20.909 74.467,24.229 69.673,24.229 C64.288,24.229 60.981,20.345 60.981,16.953 L60.981,10.026 L65.65,10.026 L65.65,16.953 C65.65,18.063 67.007,19.759 69.673,19.759 C71.747,19.759 73.105,18.521 73.105,16.953 L73.105,10.026 L77.774,10.026 L77.774,16.953 Z" id="Path" fill="#000000"></path>
  </g>
</svg> 