<?xml version="1.0" encoding="UTF-8"?>
<svg width="800px" height="800px" viewBox="0 0 800 800" version="1.1" xmlns="http://www.w3.org/2000/svg" xmlns:xlink="http://www.w3.org/1999/xlink">
  <g id="footer-dots" stroke="none" stroke-width="1" fill="none" fill-rule="evenodd">
    <circle fill="#FFFFFF" cx="40" cy="40" r="8"></circle>
    <circle fill="#FFFFFF" cx="120" cy="40" r="8"></circle>
    <circle fill="#FFFFFF" cx="200" cy="40" r="8"></circle>
    <circle fill="#FFFFFF" cx="280" cy="40" r="8"></circle>
    <circle fill="#FFFFFF" cx="360" cy="40" r="8"></circle>
    <circle fill="#FFFFFF" cx="440" cy="40" r="8"></circle>
    <circle fill="#FFFFFF" cx="520" cy="40" r="8"></circle>
    <circle fill="#FFFFFF" cx="600" cy="40" r="8"></circle>
    <circle fill="#FFFFFF" cx="680" cy="40" r="8"></circle>
    <circle fill="#FFFFFF" cx="760" cy="40" r="8"></circle>
    
    <circle fill="#FFFFFF" cx="40" cy="120" r="8"></circle>
    <circle fill="#FFFFFF" cx="120" cy="120" r="8"></circle>
    <circle fill="#FFFFFF" cx="200" cy="120" r="8"></circle>
    <circle fill="#FFFFFF" cx="280" cy="120" r="8"></circle>
    <circle fill="#FFFFFF" cx="360" cy="120" r="8"></circle>
    <circle fill="#FFFFFF" cx="440" cy="120" r="8"></circle>
    <circle fill="#FFFFFF" cx="520" cy="120" r="8"></circle>
    <circle fill="#FFFFFF" cx="600" cy="120" r="8"></circle>
    <circle fill="#FFFFFF" cx="680" cy="120" r="8"></circle>
    <circle fill="#FFFFFF" cx="760" cy="120" r="8"></circle>
    
    <circle fill="#FFFFFF" cx="40" cy="200" r="8"></circle>
    <circle fill="#FFFFFF" cx="120" cy="200" r="8"></circle>
    <circle fill="#FFFFFF" cx="200" cy="200" r="8"></circle>
    <circle fill="#FFFFFF" cx="280" cy="200" r="8"></circle>
    <circle fill="#FFFFFF" cx="360" cy="200" r="8"></circle>
    <circle fill="#FFFFFF" cx="440" cy="200" r="8"></circle>
    <circle fill="#FFFFFF" cx="520" cy="200" r="8"></circle>
    <circle fill="#FFFFFF" cx="600" cy="200" r="8"></circle>
    <circle fill="#FFFFFF" cx="680" cy="200" r="8"></circle>
    <circle fill="#FFFFFF" cx="760" cy="200" r="8"></circle>
    
    <circle fill="#FFFFFF" cx="40" cy="280" r="8"></circle>
    <circle fill="#FFFFFF" cx="120" cy="280" r="8"></circle>
    <circle fill="#FFFFFF" cx="200" cy="280" r="8"></circle>
    <circle fill="#FFFFFF" cx="280" cy="280" r="8"></circle>
    <circle fill="#FFFFFF" cx="360" cy="280" r="8"></circle>
    <circle fill="#FFFFFF" cx="440" cy="280" r="8"></circle>
    <circle fill="#FFFFFF" cx="520" cy="280" r="8"></circle>
    <circle fill="#FFFFFF" cx="600" cy="280" r="8"></circle>
    <circle fill="#FFFFFF" cx="680" cy="280" r="8"></circle>
    <circle fill="#FFFFFF" cx="760" cy="280" r="8"></circle>
    
    <circle fill="#FFFFFF" cx="40" cy="360" r="8"></circle>
    <circle fill="#FFFFFF" cx="120" cy="360" r="8"></circle>
    <circle fill="#FFFFFF" cx="200" cy="360" r="8"></circle>
    <circle fill="#FFFFFF" cx="280" cy="360" r="8"></circle>
    <circle fill="#FFFFFF" cx="360" cy="360" r="8"></circle>
    <circle fill="#FFFFFF" cx="440" cy="360" r="8"></circle>
    <circle fill="#FFFFFF" cx="520" cy="360" r="8"></circle>
    <circle fill="#FFFFFF" cx="600" cy="360" r="8"></circle>
    <circle fill="#FFFFFF" cx="680" cy="360" r="8"></circle>
    <circle fill="#FFFFFF" cx="760" cy="360" r="8"></circle>
    
    <circle fill="#FFFFFF" cx="40" cy="440" r="8"></circle>
    <circle fill="#FFFFFF" cx="120" cy="440" r="8"></circle>
    <circle fill="#FFFFFF" cx="200" cy="440" r="8"></circle>
    <circle fill="#FFFFFF" cx="280" cy="440" r="8"></circle>
    <circle fill="#FFFFFF" cx="360" cy="440" r="8"></circle>
    <circle fill="#FFFFFF" cx="440" cy="440" r="8"></circle>
    <circle fill="#FFFFFF" cx="520" cy="440" r="8"></circle>
    <circle fill="#FFFFFF" cx="600" cy="440" r="8"></circle>
    <circle fill="#FFFFFF" cx="680" cy="440" r="8"></circle>
    <circle fill="#FFFFFF" cx="760" cy="440" r="8"></circle>
    
    <circle fill="#FFFFFF" cx="40" cy="520" r="8"></circle>
    <circle fill="#FFFFFF" cx="120" cy="520" r="8"></circle>
    <circle fill="#FFFFFF" cx="200" cy="520" r="8"></circle>
    <circle fill="#FFFFFF" cx="280" cy="520" r="8"></circle>
    <circle fill="#FFFFFF" cx="360" cy="520" r="8"></circle>
    <circle fill="#FFFFFF" cx="440" cy="520" r="8"></circle>
    <circle fill="#FFFFFF" cx="520" cy="520" r="8"></circle>
    <circle fill="#FFFFFF" cx="600" cy="520" r="8"></circle>
    <circle fill="#FFFFFF" cx="680" cy="520" r="8"></circle>
    <circle fill="#FFFFFF" cx="760" cy="520" r="8"></circle>
    
    <circle fill="#FFFFFF" cx="40" cy="600" r="8"></circle>
    <circle fill="#FFFFFF" cx="120" cy="600" r="8"></circle>
    <circle fill="#FFFFFF" cx="200" cy="600" r="8"></circle>
    <circle fill="#FFFFFF" cx="280" cy="600" r="8"></circle>
    <circle fill="#FFFFFF" cx="360" cy="600" r="8"></circle>
    <circle fill="#FFFFFF" cx="440" cy="600" r="8"></circle>
    <circle fill="#FFFFFF" cx="520" cy="600" r="8"></circle>
    <circle fill="#FFFFFF" cx="600" cy="600" r="8"></circle>
    <circle fill="#FFFFFF" cx="680" cy="600" r="8"></circle>
    <circle fill="#FFFFFF" cx="760" cy="600" r="8"></circle>
    
    <circle fill="#FFFFFF" cx="40" cy="680" r="8"></circle>
    <circle fill="#FFFFFF" cx="120" cy="680" r="8"></circle>
    <circle fill="#FFFFFF" cx="200" cy="680" r="8"></circle>
    <circle fill="#FFFFFF" cx="280" cy="680" r="8"></circle>
    <circle fill="#FFFFFF" cx="360" cy="680" r="8"></circle>
    <circle fill="#FFFFFF" cx="440" cy="680" r="8"></circle>
    <circle fill="#FFFFFF" cx="520" cy="680" r="8"></circle>
    <circle fill="#FFFFFF" cx="600" cy="680" r="8"></circle>
    <circle fill="#FFFFFF" cx="680" cy="680" r="8"></circle>
    <circle fill="#FFFFFF" cx="760" cy="680" r="8"></circle>
    
    <circle fill="#FFFFFF" cx="40" cy="760" r="8"></circle>
    <circle fill="#FFFFFF" cx="120" cy="760" r="8"></circle>
    <circle fill="#FFFFFF" cx="200" cy="760" r="8"></circle>
    <circle fill="#FFFFFF" cx="280" cy="760" r="8"></circle>
    <circle fill="#FFFFFF" cx="360" cy="760" r="8"></circle>
    <circle fill="#FFFFFF" cx="440" cy="760" r="8"></circle>
    <circle fill="#FFFFFF" cx="520" cy="760" r="8"></circle>
    <circle fill="#FFFFFF" cx="600" cy="760" r="8"></circle>
    <circle fill="#FFFFFF" cx="680" cy="760" r="8"></circle>
    <circle fill="#FFFFFF" cx="760" cy="760" r="8"></circle>
  </g>
</svg> 